<svg xmlns="http://www.w3.org/2000/svg" viewBox="0 0 128 128" role="img" aria-label="Grappolo d'uva">
  <defs>
    <filter id="soft" x="-20%" y="-20%" width="140%" height="140%">
      <feDropShadow dx="0" dy="2" stdDeviation="2" flood-opacity="0.25"></feDropShadow>
    </filter>
  </defs>
  <!-- Foglia -->
  <path d="M78 16c8 0 16 6 18 12-6 2-12-2-16 4-4-4-8-6-14-6 2-6 8-10 12-10z" fill="#5bbd4b" stroke="#2a7b2e" stroke-width="3" filter="url(#soft)"></path>
  <!-- Picciolo -->
  <path d="M66 22c0-8 8-12 16-14" fill="none" stroke="#6b4b2a" stroke-width="4" stroke-linecap="round"></path>
  <!-- Acini -->
  <g fill="#7b4bff" stroke="#4a2ea6" stroke-width="3">
    <circle cx="64" cy="44" r="10"></circle>
    <circle cx="50" cy="52" r="10"></circle>
    <circle cx="78" cy="52" r="10"></circle>
    <circle cx="42" cy="66" r="11"></circle>
    <circle cx="64" cy="66" r="12"></circle>
    <circle cx="86" cy="66" r="11"></circle>
    <circle cx="50" cy="82" r="12"></circle>
    <circle cx="78" cy="82" r="12"></circle>
    <circle cx="64" cy="98" r="12"></circle>
  </g>
  <!-- Highlight -->
  <g fill="white" opacity="0.25">
    <circle cx="59" cy="40" r="3"></circle>
    <circle cx="45" cy="50" r="3"></circle>
    <circle cx="72" cy="50" r="3"></circle>
  </g>
</svg>
